<svg width="55" height="55" viewBox="0 0 55 55" fill="none" xmlns="http://www.w3.org/2000/svg">
<path d="M28.8887 51.9022C27.9951 52.247 27.0052 52.247 26.1116 51.9022C19.1328 49.1657 13.1405 44.39 8.91598 38.1977C4.69146 32.0055 2.43078 24.6839 2.42871 17.1879V5.88644C2.42871 4.86346 2.83509 3.88238 3.55844 3.15903C4.2818 2.43567 5.26288 2.0293 6.28585 2.0293H48.7144C49.7374 2.0293 50.7185 2.43567 51.4418 3.15903C52.1652 3.88238 52.5716 4.86346 52.5716 5.88644V17.1493C52.5773 24.6519 50.3202 31.9819 46.0952 38.1818C41.8702 44.3817 35.8736 49.1633 28.8887 51.9022Z" fill="#FAFAFA" stroke="#33AB7D" stroke-width="2" stroke-linecap="round" stroke-linejoin="round"/>
<path d="M33.286 21.3149H21.7146C19.5843 21.3149 17.8574 23.0418 17.8574 25.1721V32.8864C17.8574 35.0166 19.5843 36.7435 21.7146 36.7435H33.286C35.4162 36.7435 37.1431 35.0166 37.1431 32.8864V25.1721C37.1431 23.0418 35.4162 21.3149 33.286 21.3149Z" fill="#33AB7D" stroke="#33AB7D" stroke-width="2" stroke-linecap="round" stroke-linejoin="round"/>
<path d="M33.2858 21.3152V17.4581C33.2858 16.6983 33.1361 15.9459 32.8454 15.244C32.5546 14.542 32.1284 13.9042 31.5912 13.367C31.0539 12.8297 30.4161 12.4035 29.7142 12.1128C29.0122 11.822 28.2599 11.6724 27.5001 11.6724C26.7403 11.6724 25.9879 11.822 25.286 12.1128C24.584 12.4035 23.9462 12.8297 23.409 13.367C22.8717 13.9042 22.4455 14.542 22.1548 15.244C21.864 15.9459 21.7144 16.6983 21.7144 17.4581V21.3152" stroke="#33AB7D" stroke-width="2" stroke-linecap="round" stroke-linejoin="round"/>
</svg>
