<svg width="55" height="55" viewBox="0 0 55 55" fill="none" xmlns="http://www.w3.org/2000/svg">
<path d="M19.786 19.3864C24.579 19.3864 28.4646 15.5009 28.4646 10.7079C28.4646 5.91483 24.579 2.0293 19.786 2.0293C14.993 2.0293 11.1074 5.91483 11.1074 10.7079C11.1074 15.5009 14.993 19.3864 19.786 19.3864Z" stroke="#33AB7D" stroke-width="2" stroke-linecap="round" stroke-linejoin="round"/>
<path d="M23.6431 25.5962C21.0997 25.009 18.4564 25.0044 15.9109 25.5826C13.3654 26.1608 10.9836 27.307 8.94347 28.9354C6.90334 30.5638 5.25769 32.6323 4.12957 34.9863C3.00145 37.3402 2.42004 39.9188 2.42881 42.5291V48.3148H23.6431" stroke="#33AB7D" stroke-width="2" stroke-linecap="round" stroke-linejoin="round"/>
<path d="M41.6559 52.0565C41.2322 52.2097 40.7682 52.2097 40.3445 52.0565C37.1277 50.7822 34.3675 48.5715 32.4214 45.7107C30.4752 42.8499 29.4327 39.4708 29.4288 36.0108V30.9579C29.4117 30.7002 29.4499 30.4419 29.5408 30.2002C29.6317 29.9585 29.7732 29.739 29.9558 29.5564C30.1384 29.3738 30.3579 29.2323 30.5996 29.1414C30.8413 29.0505 31.0997 29.0123 31.3573 29.0293H50.643C50.9007 29.0123 51.1591 29.0505 51.4008 29.1414C51.6425 29.2323 51.862 29.3738 52.0446 29.5564C52.2272 29.739 52.3687 29.9585 52.4596 30.2002C52.5505 30.4419 52.5887 30.7002 52.5716 30.9579V36.0108C52.5677 39.4708 51.5252 42.8499 49.579 45.7107C47.6328 48.5715 44.8727 50.7822 41.6559 52.0565Z" fill="#33AB7D" stroke="#33AB7D" stroke-width="2" stroke-linecap="round" stroke-linejoin="round"/>
</svg>
