<svg width="55" height="55" viewBox="0 0 55 55" fill="none" xmlns="http://www.w3.org/2000/svg">
<path d="M52.5716 36.8982C52.5716 35.8752 52.1652 34.8941 51.4418 34.1707C50.7185 33.4474 49.7374 33.041 48.7144 33.041H37.143V36.8982H17.8573V33.041H6.28585C5.26288 33.041 4.2818 33.4474 3.55844 34.1707C2.83509 34.8941 2.42871 35.8752 2.42871 36.8982V48.4696C2.42871 49.4926 2.83509 50.4736 3.55844 51.197C4.2818 51.9204 5.26288 52.3267 6.28585 52.3267H48.7144C49.7374 52.3267 50.7185 51.9204 51.4418 51.197C52.1652 50.4736 52.5716 49.4926 52.5716 48.4696V36.8982Z" fill="#33AB7D" stroke="#33AB7D" stroke-width="2" stroke-linecap="round" stroke-linejoin="round"/>
<path d="M6.28564 21.4692H48.7142" stroke="#33AB7D" stroke-width="2" stroke-linecap="round" stroke-linejoin="round"/>
<path d="M6.28564 9.89795H48.7142" stroke="#33AB7D" stroke-width="2" stroke-linecap="round" stroke-linejoin="round"/>
</svg>
