<svg width="55" height="55" viewBox="0 0 55 55" fill="none" xmlns="http://www.w3.org/2000/svg">
<path d="M19.7855 36.4732C18.1712 37.8565 16.1253 38.634 13.9998 38.6718C12.4431 38.8211 10.8726 38.6243 9.40085 38.0956C7.92909 37.5669 6.59245 36.7193 5.48664 35.6135C4.38084 34.5077 3.53322 33.171 3.0045 31.6993C2.47578 30.2275 2.27903 28.6571 2.42834 27.1004C2.27903 25.5437 2.47578 23.9732 3.0045 22.5014C3.53322 21.0297 4.38084 19.693 5.48664 18.5872C6.59245 17.4814 7.92909 16.6338 9.40085 16.1051C10.8726 15.5764 12.4431 15.3796 13.9998 15.5289C24.6069 15.5289 30.3926 38.6718 40.9998 38.6718C42.5565 38.8211 44.1269 38.6243 45.5987 38.0956C47.0705 37.5669 48.4071 36.7193 49.5129 35.6135C50.6187 34.5077 51.4663 33.171 51.995 31.6993C52.5238 30.2275 52.7205 28.6571 52.5712 27.1004C52.7205 25.5437 52.5238 23.9732 51.995 22.5014C51.4663 21.0297 50.6187 19.693 49.5129 18.5872C48.4071 17.4814 47.0705 16.6338 45.5987 16.1051C44.1269 15.5764 42.5565 15.3796 40.9998 15.5289C38.941 15.6106 36.9702 16.3853 35.4069 17.7275" stroke="#33AB7D" stroke-width="2" stroke-linecap="round" stroke-linejoin="round"/>
</svg>
