<svg width="53" height="53" viewBox="0 0 53 53" fill="none" xmlns="http://www.w3.org/2000/svg">
<path d="M26.5714 1.0293C22.0364 1.03071 17.5866 2.26219 13.6961 4.59258C9.80554 6.92297 6.61996 10.265 4.47862 14.2627C2.33728 18.2604 1.32038 22.764 1.53622 27.294C1.75205 31.8239 3.19255 36.2105 5.70429 39.9864L1.5 51.1722L15.5786 48.6264C18.9686 50.2831 22.6889 51.1532 26.4621 51.1718C30.2352 51.1905 33.9639 50.3573 37.3702 48.7344C40.7766 47.1114 43.7726 44.7405 46.1351 41.7985C48.4976 38.8564 50.1655 35.419 51.0146 31.7426C51.8637 28.0662 51.872 24.2455 51.039 20.5655C50.2059 16.8854 48.553 13.4408 46.2034 10.4884C43.8538 7.53608 40.8681 5.15215 37.4689 3.51434C34.0697 1.87653 30.3446 1.02707 26.5714 1.0293Z" fill="#33AB7D" stroke="#33AB7D" stroke-width="2" stroke-linecap="round" stroke-linejoin="round"/>
<path d="M13.0716 28.0295C14.1368 28.0295 15.0002 27.1661 15.0002 26.1009C15.0002 25.0358 14.1368 24.1724 13.0716 24.1724C12.0065 24.1724 11.1431 25.0358 11.1431 26.1009C11.1431 27.1661 12.0065 28.0295 13.0716 28.0295Z" fill="#FAFAFA" stroke="#FAFAFA" stroke-width="2" stroke-linecap="round" stroke-linejoin="round"/>
<path d="M25.6073 28.0295C26.6724 28.0295 27.5359 27.1661 27.5359 26.1009C27.5359 25.0358 26.6724 24.1724 25.6073 24.1724C24.5422 24.1724 23.6787 25.0358 23.6787 26.1009C23.6787 27.1661 24.5422 28.0295 25.6073 28.0295Z" fill="#FAFAFA" stroke="#FAFAFA" stroke-width="2" stroke-linecap="round" stroke-linejoin="round"/>
<path d="M38.1429 28.0295C39.208 28.0295 40.0715 27.1661 40.0715 26.1009C40.0715 25.0358 39.208 24.1724 38.1429 24.1724C37.0778 24.1724 36.2144 25.0358 36.2144 26.1009C36.2144 27.1661 37.0778 28.0295 38.1429 28.0295Z" fill="#FAFAFA" stroke="#FAFAFA" stroke-width="2" stroke-linecap="round" stroke-linejoin="round"/>
</svg>
