<svg width="39" height="39" viewBox="0 0 39 39" fill="none" xmlns="http://www.w3.org/2000/svg">
<path d="M38.5309 25.1278L29.0386 22.1171C26.8102 21.4083 24.9554 19.8484 23.8813 17.7799C22.8073 15.7114 22.6017 13.3033 23.3098 11.0841L26.3347 1.63654C26.38 1.49598 26.3673 1.34327 26.2994 1.21201C26.2316 1.08075 26.1141 0.981695 25.9729 0.936627C25.8317 0.891559 25.6783 0.904168 25.5464 0.971691C25.4145 1.03921 25.315 1.15612 25.2697 1.29668L22.2457 10.7575C21.5329 12.9746 19.9656 14.8198 17.8877 15.8882C15.8097 16.9566 13.3908 17.161 11.1616 16.4565L1.66807 13.4486C1.53172 13.4075 1.3848 13.4199 1.2573 13.4831C1.12981 13.5464 1.03137 13.6557 0.982153 13.7887C0.93294 13.9217 0.936654 14.0685 0.992522 14.1989C1.04839 14.3293 1.15221 14.4335 1.28274 14.4903L10.8228 17.5176C11.9271 17.8673 12.9514 18.4301 13.837 19.1739C14.7227 19.9177 15.4524 20.8279 15.9844 21.8526C16.5165 22.8772 16.8404 23.9961 16.9377 25.1454C17.0351 26.2947 16.9039 27.4518 16.5517 28.5506L13.5267 37.9982C13.4818 38.1389 13.4949 38.2916 13.5631 38.4227C13.6313 38.5538 13.749 38.6526 13.8904 38.6973C14.0318 38.742 14.1852 38.729 14.317 38.6611C14.4487 38.5932 14.5479 38.476 14.5928 38.3353L17.6178 28.8877C18.33 26.6699 19.8972 24.8238 21.9755 23.7548C24.0538 22.6859 26.4733 22.4812 28.703 23.1859L38.1954 26.1966C38.2659 26.2186 38.3401 26.2264 38.4136 26.2198C38.4872 26.2132 38.5588 26.1923 38.6242 26.1582C38.6896 26.124 38.7477 26.0774 38.795 26.021C38.8424 25.9645 38.878 25.8994 38.9001 25.8292C38.9221 25.759 38.93 25.6852 38.9234 25.612C38.9168 25.5387 38.8957 25.4675 38.8614 25.4024C38.8272 25.3372 38.7803 25.2795 38.7236 25.2324C38.6669 25.1852 38.6014 25.1497 38.5309 25.1278ZM18.0838 25.588C18.0401 24.1044 17.6628 22.6494 16.9795 21.33C16.2963 20.0107 15.3245 18.8606 14.1357 17.9644C15.6247 17.9171 17.0842 17.5388 18.4074 16.8575C19.7305 16.1761 20.8838 15.2088 21.7828 14.0264C21.8291 15.5104 22.2087 16.9652 22.8937 18.284C23.5787 19.6029 24.5518 20.7523 25.7415 21.648C24.2505 21.6937 22.7886 22.0713 21.4634 22.7531C20.1383 23.4349 18.9834 24.4036 18.0838 25.588Z" fill="#2948A2"/>
</svg>
