<svg width="41" height="40" viewBox="0 0 41 40" fill="none" xmlns="http://www.w3.org/2000/svg">
<path d="M23.023 39.0042L21.9159 29.1499C21.6579 26.8357 22.333 24.5142 23.793 22.6948C25.2529 20.8755 27.3785 19.7071 29.7032 19.446L39.6042 18.3441C39.7516 18.328 39.8865 18.2542 39.9793 18.139C40.0721 18.0238 40.1151 17.8767 40.0989 17.73C40.0826 17.5833 40.0085 17.449 39.8928 17.3566C39.7771 17.2643 39.6293 17.2215 39.4819 17.2377L29.5692 18.3457C27.2445 18.6017 24.9127 17.9294 23.0854 16.4764C21.2582 15.0234 20.0846 12.9083 19.8223 10.5951L18.7122 0.740869C18.6943 0.600227 18.623 0.471743 18.513 0.381642C18.4031 0.291541 18.2626 0.246624 18.1205 0.256128C17.9784 0.265632 17.8453 0.328819 17.7484 0.432753C17.6515 0.536687 17.5982 0.67354 17.5993 0.815307L18.7106 10.7198C18.84 11.8659 18.7412 13.0262 18.4197 14.1343C18.0983 15.2425 17.5607 16.2767 16.8375 17.1779C16.1143 18.0791 15.2197 18.8296 14.2049 19.3865C13.1902 19.9435 12.0751 20.2959 10.9234 20.4237L1.02241 21.5256C0.874999 21.5421 0.740224 21.6163 0.647737 21.7317C0.555249 21.8471 0.512618 21.9944 0.529231 22.1411C0.545844 22.2878 0.620336 22.422 0.736318 22.514C0.852299 22.6061 1.00027 22.6485 1.14768 22.6319L11.0487 21.5301C13.3738 21.2733 15.7063 21.9452 17.5343 23.3983C19.3622 24.8514 20.5362 26.9669 20.7985 29.2806L21.9056 39.1349C21.9143 39.2079 21.9372 39.2786 21.9733 39.3427C22.0093 39.4069 22.0577 39.4634 22.1157 39.509C22.1737 39.5545 22.2401 39.5883 22.3112 39.6083C22.3823 39.6283 22.4566 39.6342 22.53 39.6256C22.6034 39.617 22.6743 39.5941 22.7388 39.5583C22.8033 39.5224 22.8601 39.4742 22.9058 39.4165C22.9516 39.3588 22.9855 39.2927 23.0056 39.222C23.0257 39.1512 23.0317 39.0772 23.023 39.0042ZM14.266 20.6086C15.6094 19.9641 16.7905 19.0281 17.7225 17.8693C18.6544 16.7105 19.3134 15.3585 19.6511 13.9127C20.3015 15.2467 21.2435 16.419 22.408 17.3438C23.5725 18.2686 24.9301 18.9225 26.3813 19.2576C25.0387 19.9046 23.8587 20.8426 22.9279 22.0027C21.9971 23.1629 21.3392 24.5159 21.0024 25.9622C20.3527 24.6256 19.4103 23.451 18.2446 22.5245C17.0789 21.5981 15.7194 20.9434 14.266 20.6086Z" fill="#2948A2"/>
</svg>
