<svg width="65" height="59" viewBox="0 0 65 59" fill="none" xmlns="http://www.w3.org/2000/svg">
<path d="M32.5524 17.7853L39.3578 15.5235L19.6838 22.043C9.97476 25.2727 4.25262 35.9848 7.38701 45.7239C8.85671 50.3324 12.0482 54.1958 16.2964 56.509C20.5445 58.8222 25.5215 59.4067 30.19 58.1407C34.8585 56.8746 38.8583 53.8557 41.3557 49.7132C43.8531 45.5706 44.6554 40.6241 43.5954 35.9045C43.2223 34.2337 42.6251 32.621 41.8201 31.1102C41.6027 30.7003 41.4777 30.2478 41.4537 29.7845C41.4297 29.3212 41.5075 28.8582 41.6814 28.4281C41.8554 27.9981 42.1213 27.6112 42.4606 27.2948C42.8 26.9784 43.2044 26.7401 43.6456 26.5966H43.7108C45.7168 25.9948 48.8111 24.9618 50.8221 24.3048L57.9484 21.7973C57.9484 21.7973 64.2523 19.716 64.4379 9.61078C64.444 9.33914 64.385 9.06999 64.2657 8.82586C64.1465 8.58174 63.9704 8.36976 63.7524 8.20768C63.5343 8.0456 63.2805 7.93815 63.0124 7.89433C62.7443 7.85051 62.4695 7.87159 62.2112 7.95582L45.8071 13.3821L39.3578 15.5235" fill="#3CF788"/>
<path d="M20.4116 8.32666L22.7587 11.2755L20.4116 8.32666Z" fill="#25E976"/>
<path d="M19.614 9.12415L21.961 12.073C22.173 12.2837 22.4594 12.4026 22.7584 12.404C23.0586 12.4018 23.3463 12.2831 23.5608 12.073C23.7665 11.8588 23.8799 11.5725 23.8767 11.2756L23.8366 10.9747C23.7866 10.7855 23.6881 10.6126 23.5508 10.4732L21.1987 7.52436C21.0944 7.4191 20.9701 7.33563 20.8333 7.27881C20.6964 7.22199 20.5495 7.19294 20.4013 7.19336C20.1021 7.19336 19.8151 7.31225 19.6034 7.52386C19.3918 7.73547 19.2729 8.02248 19.2729 8.32174L19.3131 8.62265C19.3649 8.8122 19.4651 8.98502 19.6039 9.12415H19.614Z" fill="#001863"/>
<path d="M27.668 1.97803L29.4633 8.53767L27.668 1.97803Z" fill="#25E976"/>
<path d="M26.5799 2.27863L28.3903 8.83827C28.4298 8.98118 28.4971 9.11491 28.5883 9.23182C28.6795 9.34874 28.7928 9.44654 28.9218 9.51966C29.0508 9.59277 29.193 9.63976 29.3401 9.65794C29.4873 9.67612 29.6366 9.66514 29.7795 9.62563C29.9224 9.58611 30.0561 9.51884 30.173 9.42764C30.2899 9.33644 30.3877 9.22311 30.4609 9.09412C30.534 8.96512 30.581 8.82299 30.5991 8.67583C30.6173 8.52868 30.6064 8.37938 30.5668 8.23647L28.7564 1.67682C28.7169 1.53391 28.6496 1.40018 28.5584 1.28327C28.4672 1.16636 28.3539 1.06855 28.2249 0.99544C28.0959 0.922327 27.9538 0.875338 27.8066 0.857155C27.6595 0.838972 27.5102 0.84995 27.3673 0.889465C27.2243 0.92898 27.0906 0.996256 26.9737 1.08745C26.8568 1.17865 26.759 1.29198 26.6859 1.42098C26.6128 1.54997 26.5658 1.69211 26.5476 1.83926C26.5294 1.98642 26.5404 2.13571 26.5799 2.27863Z" fill="#001863"/>
<path d="M35.9131 7.39912C36.0226 6.10846 36.2102 4.82561 36.4748 3.55762L35.9131 7.39912Z" fill="#25E976"/>
<path d="M37.0312 7.39907C37.0763 6.89756 37.1315 6.36096 37.2017 5.83939L37.1616 6.1403C37.2669 5.37801 37.3973 4.63579 37.5528 3.85846C37.5919 3.71555 37.6026 3.56632 37.5841 3.41929C37.5656 3.27226 37.5184 3.13031 37.445 3.00155C37.3717 2.87279 37.2737 2.75973 37.1566 2.66884C37.0396 2.57795 36.9058 2.51099 36.7629 2.47181C36.62 2.43262 36.4707 2.42197 36.3237 2.44046C36.1767 2.45894 36.0347 2.50621 35.906 2.57956C35.7772 2.6529 35.6642 2.75089 35.5733 2.86793C35.4824 2.98497 35.4154 3.11876 35.3762 3.26167C35.0955 4.62795 34.8945 6.00942 34.7744 7.39907C34.7735 7.54736 34.8022 7.69435 34.8591 7.83131C34.916 7.96828 34.9997 8.09245 35.1054 8.19645C35.3175 8.4072 35.6039 8.52609 35.9028 8.52744C36.1997 8.51983 36.4823 8.3985 36.6923 8.18852C36.9023 7.97853 37.0236 7.69593 37.0312 7.39907Z" fill="#001863"/>
<path d="M57.7779 5.23263L41.3788 10.6789L34.9095 12.8254L34.5735 17.7C34.5521 17.8488 34.4895 17.9886 34.393 18.1038C34.2964 18.219 34.1696 18.3049 34.0268 18.3519L29.0118 20.0269C28.8797 20.0701 28.7388 20.0789 28.6024 20.0525C28.466 20.0261 28.3386 19.9653 28.2322 19.876C28.1258 19.7866 28.0439 19.6716 27.9943 19.5419C27.9447 19.4121 27.9289 19.2718 27.9486 19.1343L28.1442 15.0821L34.9095 12.8254L15.2305 19.3449C5.5415 22.5846 -0.195685 33.3017 2.95375 43.0409C4.43254 47.6399 7.62667 51.4923 11.8723 53.7973C16.1179 56.1024 21.0885 56.6827 25.7509 55.4179C30.4134 54.153 34.4091 51.1401 36.9077 47.0054C39.4062 42.8708 40.2155 37.9323 39.1672 33.2164C38.7923 31.5471 38.1935 29.936 37.3869 28.4271C37.1687 28.0171 37.0431 27.5642 37.019 27.1003C36.9949 26.6365 37.0729 26.173 37.2474 25.7426C37.422 25.3122 37.6889 24.9253 38.0292 24.6093C38.3696 24.2933 38.7752 24.0558 39.2174 23.9136H39.2826C41.2886 23.3068 44.3828 22.2787 46.3938 21.6167L53.5152 19.1092C53.5152 19.1092 59.8191 17.033 60.0347 6.92269C60.0485 6.64462 59.9938 6.36742 59.8755 6.11542C59.7571 5.86343 59.5786 5.64436 59.3558 5.47748C59.1329 5.31059 58.8725 5.20098 58.5974 5.15829C58.3223 5.1156 58.0409 5.14113 57.7779 5.23263Z" stroke="#001863" stroke-width="2.50751" stroke-miterlimit="10"/>
<path d="M13.8312 41.0702C15.2466 41.0702 16.3939 39.9228 16.3939 38.5075C16.3939 37.0922 15.2466 35.9448 13.8312 35.9448C12.4159 35.9448 11.2686 37.0922 11.2686 38.5075C11.2686 39.9228 12.4159 41.0702 13.8312 41.0702Z" fill="#001863"/>
<path d="M21.2287 40.433C22.644 40.433 23.7914 39.2856 23.7914 37.8703C23.7914 36.455 22.644 35.3076 21.2287 35.3076C19.8134 35.3076 18.666 36.455 18.666 37.8703C18.666 39.2856 19.8134 40.433 21.2287 40.433Z" fill="#001863"/>
<path d="M28.6305 39.7962C30.0459 39.7962 31.1932 38.6489 31.1932 37.2336C31.1932 35.8182 30.0459 34.6709 28.6305 34.6709C27.2152 34.6709 26.0679 35.8182 26.0679 37.2336C26.0679 38.6489 27.2152 39.7962 28.6305 39.7962Z" fill="#001863"/>
</svg>
